<svg fill="#fff" height="800px" width="800px" version="1.1" id="Capa_1" xmlns="http://www.w3.org/2000/svg" xmlns:xlink="http://www.w3.org/1999/xlink" 
	viewBox="0 0 297 297" xml:space="preserve">
	<path d="M286.586,289.931c5.751,0,10.414-4.661,10.414-10.415V103.396c0-5.752-4.663-10.415-10.414-10.415h-119.73V17.484
		c0-5.754-4.66-10.415-10.411-10.415H10.413C4.663,7.069,0,11.731,0,17.484v262.031c0,5.754,4.663,10.415,10.413,10.415H286.586z
		M182.75,113.809h27.278v45.329H182.75V113.809z M69.792,27.896h27.276v30.721H69.792V27.896z M20.826,27.896h28.139v41.135
		c0,5.751,4.663,10.413,10.415,10.413h48.101c5.749,0,10.411-4.662,10.411-10.413V27.896h28.141v65.085h-39.84
		c-5.75,0-10.413,4.663-10.413,10.415v165.707H20.826V27.896z M116.604,269.103V113.809h45.319v55.739
		c0,5.752,4.664,10.413,10.413,10.413h48.104c5.751,0,10.415-4.661,10.415-10.413v-55.739h45.317v155.295H116.604z"/>
</svg>