<svg width="800" height="800" viewBox="0 0 800 800" fill="none" xmlns="http://www.w3.org/2000/svg">
<path d="M230.788 366.37C222.574 366.37 214.263 366.37 205.857 366.37C171.836 365.14 137.924 370.916 106.227 383.338C74.5304 395.76 45.7249 414.564 21.5982 438.583L14.7207 446.607V683.88H131.638V549.196L147.399 531.429L154.563 523.119C191.871 484.791 238.319 456.588 289.533 441.162C263.892 421.651 243.669 395.904 230.788 366.37Z" fill="black"/>
<path d="M204.997 310.49C208.149 310.49 210.728 310.49 213.881 310.49C209.753 275.049 215.972 239.171 231.786 207.187C247.6 175.203 272.334 148.479 303.001 130.242C291.885 113.259 276.548 99.4544 258.493 90.1796C240.438 80.9047 220.283 76.4778 200.003 77.3325C179.723 78.1871 160.013 84.2939 142.802 95.0549C125.592 105.816 111.471 120.862 101.822 138.72C92.1737 156.579 87.3285 176.636 87.761 196.93C88.1935 217.223 93.8889 237.056 104.29 254.487C114.69 271.918 129.439 286.349 147.093 296.367C164.747 306.385 184.699 311.646 204.997 311.636V310.49Z" fill="black"/>
<path d="M396.564 390.871C467.308 390.871 524.657 333.521 524.657 262.777C524.657 192.034 467.308 134.684 396.564 134.684C325.82 134.684 268.471 192.034 268.471 262.777C268.471 333.521 325.82 390.871 396.564 390.871Z" fill="black"/>
<path d="M403.442 459.072C366.018 457.561 328.675 463.637 293.661 476.933C258.646 490.23 226.684 510.473 199.696 536.444L192.532 544.467V725.861C192.644 731.77 193.919 737.598 196.284 743.014C198.649 748.43 202.057 753.327 206.315 757.425C210.573 761.523 215.596 764.742 221.098 766.898C226.601 769.054 232.474 770.106 238.382 769.992H567.642C573.55 770.106 579.423 769.054 584.925 766.898C590.428 764.742 595.451 761.523 599.709 757.425C603.966 753.327 607.375 748.43 609.74 743.014C612.105 737.598 613.38 731.77 613.492 725.861V545.041L606.614 536.444C579.801 510.393 547.95 490.093 513.013 476.789C478.077 463.484 440.791 457.455 403.442 459.072Z" fill="black"/>
<path d="M732.711 106.3L708.611 93.6527C687.456 82.551 676.878 77 665.5 77C654.121 77 643.543 82.551 622.388 93.6527L598.288 106.3C576.915 117.516 564.351 124.109 556.564 132.928L665.5 187.396L774.435 132.928C766.649 124.109 754.085 117.516 732.711 106.3Z" fill="black"/>
<path d="M782.968 148.871L674.538 203.085V316.843C683.188 314.689 693.032 309.523 708.611 301.347L732.711 288.701C758.639 275.094 771.603 268.291 778.801 256.067C786 243.842 786 228.629 786 198.205V196.795C786 173.989 786 159.73 782.968 148.871Z" fill="black"/>
<path d="M656.462 316.843V203.085L548.032 148.87C545 159.73 545 173.989 545 196.795V198.205C545 228.629 545 243.842 552.199 256.067C559.397 268.291 572.361 275.094 598.289 288.7L622.389 301.347C637.969 309.523 647.812 314.689 656.462 316.843Z" fill="black"/>
</svg>
