<svg width="1602" height="1602" viewBox="0 0 1602 1602" stroke="white" fill="none" xmlns="http://www.w3.org/2000/svg">
<path d="M1159.56 327.106L1213.26 355.286C1271.03 385.604 1299.92 400.762 1315.96 428.002C1332 455.242 1332 489.138 1332 556.929V560.071C1332 627.862 1332 661.76 1315.96 688.999C1299.92 716.238 1271.03 731.395 1213.26 761.714L1159.56 789.893C1112.42 814.63 1088.85 827 1063.5 827C1038.15 827 1014.58 814.63 967.438 789.893L913.738 761.714C855.966 731.395 827.08 716.238 811.04 688.999C795 661.76 795 627.862 795 560.071V556.929C795 489.138 795 455.242 811.04 428.002C827.08 400.762 855.966 385.604 913.738 355.286L967.438 327.106C1014.58 302.369 1038.15 290 1063.5 290C1088.85 290 1112.42 302.369 1159.56 327.106Z" stroke-width="40.275" stroke-linecap="round"/>
<path d="M1305.15 437.675L1197.75 491.375M1197.75 491.375C1197.75 491.375 1189.57 495.466 1184.32 498.088C1137.14 521.681 1063.5 558.5 1063.5 558.5M1197.75 491.375V585.35M1197.75 491.375L942.675 357.125M1063.5 558.5L821.85 437.675M1063.5 558.5V813.575" stroke-width="40.275" stroke-linecap="round"/>
<path d="M568 1233.82C568 1311.14 505.32 1373.82 428 1373.82C350.68 1373.82 288 1311.14 288 1233.82C288 1164.67 338.129 1107.23 404.027 1095.86L351.637 1046.09V1033.36L389.818 992H466.182L504.363 1033.36V1046.09L451.973 1095.86C517.871 1107.23 568 1164.67 568 1233.82ZM428 1132C371.768 1132 326.182 1177.59 326.182 1233.82C326.182 1290.05 371.768 1335.64 428 1335.64C484.232 1335.64 529.818 1290.05 529.818 1233.82C529.818 1177.59 484.232 1132 428 1132ZM434.363 1074.73L472.545 1042.91H447.091L434.363 1074.73ZM453.455 1030.18L456.636 1004.73L434.363 1020.64L453.455 1030.18ZM421.636 1074.73L408.909 1042.91H383.454L421.636 1074.73ZM402.545 1030.18L421.636 1020.64L399.364 1004.73L402.545 1030.18Z" fill="white"/>
<path d="M593.115 542.472C559.197 474.086 487.528 432.631 411.253 438.92C334.386 445.284 267.652 502.695 249.421 577.453C231.297 651.889 261.58 732.119 325.771 774.687C389.833 817.16 474.228 814.439 536.266 769.694C607.009 718.687 629.112 622.6 593.903 544.27C593.671 543.657 593.408 543.057 593.115 542.472ZM277.892 608.004C283.595 546.306 328.36 492.442 388.524 476.624C452.977 459.65 519.688 487.499 554.758 542.374L473.585 581.256C455.41 561.347 426.804 553.462 400.756 565.939C375.533 578.021 362.254 605.978 366.627 632.488L285.863 671.174C278.686 650.938 275.967 629.389 277.892 608.004ZM453.325 609.441C467.413 643.22 417.768 667.68 401.713 634.163C385.659 600.646 435.859 577.259 453.325 609.441ZM534.778 727.087C490.192 772.174 420.985 784.574 363.504 757.805C337.385 745.508 315.413 725.867 300.275 701.284L380.98 662.627C398.87 682.704 429.207 689.728 454.294 677.712C480.385 665.214 492.111 637.969 488.006 611.362L569.204 572.468C587.151 625.766 575.234 686.195 534.786 727.083L534.778 727.087Z" fill="white"/>
<path d="M146 126L146 1475" stroke-width="66" stroke-linecap="round"/>
<path d="M1457 126L1457 1475" stroke-width="66" stroke-linecap="round"/>
<path d="M146 1407L1457 1407" stroke-width="66" stroke-linecap="round"/>
<path d="M146 827L1457 827" stroke-width="66" stroke-linecap="round"/>
<path d="M902.745 1183.26C993.478 1200.28 1084.21 1226.74 1171.16 1258.88L1210.86 1274L1173.05 1311.8C1122.02 1362.84 1042.63 1370.4 982.137 1332.6L904.636 1279.67C872.501 1260.77 832.805 1253.2 795 1260.77L902.745 1183.26Z" fill="white" stroke-width="32" stroke-miterlimit="10" stroke-linecap="round" stroke-linejoin="round"/>
<path d="M902.749 1183.27L936.774 1084.97C944.335 1060.4 963.238 1041.5 985.921 1030.15C1048.3 1001.8 1120.13 1011.25 1173.06 1054.73L1176.84 1058.51C1214.64 1088.75 1233.55 1137.9 1225.99 1187.05L1210.86 1279.67H1286.47V1160.58C1286.47 1117.11 1267.57 1073.63 1233.55 1045.28" fill="white"/>
<path d="M902.749 1183.27L936.774 1084.97C944.335 1060.4 963.238 1041.5 985.921 1030.15C1048.3 1001.8 1120.13 1011.25 1173.06 1054.73L1176.84 1058.51C1214.64 1088.75 1233.55 1137.9 1225.99 1187.05L1210.86 1279.67H1286.47V1160.58C1286.47 1117.11 1267.57 1073.63 1233.55 1045.28" stroke-width="32" stroke-miterlimit="10" stroke-linecap="round" stroke-linejoin="round"/>
</svg>
